<svg xmlns="http://www.w3.org/2000/svg" viewBox="0 0 420 380" width="420" height="380" fill="none"><defs><radialGradient id="lg0" cx="38%" cy="34%" r="78%"><stop offset="0%" stop-color="#c9d9be"/><stop offset="62%" stop-color="#9db98c"/><stop offset="100%" stop-color="#9db98c" stop-opacity=".88"/></radialGradient><radialGradient id="lg1" cx="38%" cy="34%" r="78%"><stop offset="0%" stop-color="#b6cca6"/><stop offset="62%" stop-color="#8bad78"/><stop offset="100%" stop-color="#8bad78" stop-opacity=".88"/></radialGradient><radialGradient id="lg2" cx="38%" cy="34%" r="78%"><stop offset="0%" stop-color="#9dba8c"/><stop offset="62%" stop-color="#75996a"/><stop offset="100%" stop-color="#75996a" stop-opacity=".88"/></radialGradient><radialGradient id="lg3" cx="38%" cy="34%" r="78%"><stop offset="0%" stop-color="#87a97a"/><stop offset="62%" stop-color="#5f8358"/><stop offset="100%" stop-color="#5f8358" stop-opacity=".88"/></radialGradient><radialGradient id="lg4" cx="38%" cy="34%" r="78%"><stop offset="0%" stop-color="#a8bfa0"/><stop offset="62%" stop-color="#7d9c76"/><stop offset="100%" stop-color="#7d9c76" stop-opacity=".88"/></radialGradient></defs><g><path d="M-20.0 400.0 C120.0 266.0 250.0 250.8 400.0 114.0" fill="none" stroke="#8a9c76" stroke-width="2.4" stroke-linecap="round" opacity=".85"/><g transform="translate(29.7 382.7) rotate(12.9)" opacity="0.87"><ellipse rx="29.3" ry="18.6" fill="url(#lg4)"/><path d="M-24.0 0 Q0 -2.6 24.0 0" fill="none" stroke="#7d9c76" stroke-opacity=".38" stroke-width="1.67" stroke-linecap="round"/></g><path d="M5.1 377.1 L9.1 378.0" stroke="#8a9c76" stroke-width="1.32" opacity=".7" stroke-linecap="round"/><g transform="translate(24.2 333.2) rotate(-102.7)" opacity="0.83"><ellipse rx="28.2" ry="17.9" fill="url(#lg3)"/><path d="M-23.1 0 Q0 -2.5 23.1 0" fill="none" stroke="#5f8358" stroke-opacity=".38" stroke-width="1.61" stroke-linecap="round"/></g><path d="M29.5 356.9 L28.6 353.0" stroke="#8a9c76" stroke-width="1.32" opacity=".7" stroke-linecap="round"/><g transform="translate(70.4 351.1) rotate(37.0)" opacity="0.88"><ellipse rx="24.2" ry="15.3" fill="url(#lg3)"/><path d="M-19.9 0 Q0 -2.1 19.9 0" fill="none" stroke="#5f8358" stroke-opacity=".38" stroke-width="1.38" stroke-linecap="round"/></g><path d="M53.8 338.5 L56.5 340.6" stroke="#8a9c76" stroke-width="1.32" opacity=".7" stroke-linecap="round"/><g transform="translate(76.6 299.4) rotate(-93.4)" opacity="0.82"><ellipse rx="26.0" ry="16.5" fill="url(#lg1)"/><path d="M-21.3 0 Q0 -2.3 21.3 0" fill="none" stroke="#8bad78" stroke-opacity=".38" stroke-width="1.48" stroke-linecap="round"/></g><path d="M77.9 321.7 L77.7 318.1" stroke="#8a9c76" stroke-width="1.32" opacity=".7" stroke-linecap="round"/><g transform="translate(116.5 318.2) rotate(39.5)" opacity="0.92"><ellipse rx="21.8" ry="13.8" fill="url(#lg3)"/><path d="M-17.9 0 Q0 -1.9 17.9 0" fill="none" stroke="#5f8358" stroke-opacity=".38" stroke-width="1.24" stroke-linecap="round"/></g><path d="M102.1 306.3 L104.4 308.2" stroke="#8a9c76" stroke-width="1.32" opacity=".7" stroke-linecap="round"/><g transform="translate(128.9 270.4) rotate(-82.8)" opacity="0.79"><ellipse rx="25.0" ry="15.8" fill="url(#lg4)"/><path d="M-20.5 0 Q0 -2.2 20.5 0" fill="none" stroke="#7d9c76" stroke-opacity=".38" stroke-width="1.43" stroke-linecap="round"/></g><path d="M126.1 291.8 L126.6 288.3" stroke="#8a9c76" stroke-width="1.32" opacity=".7" stroke-linecap="round"/><g transform="translate(166.6 291.6) rotate(39.8)" opacity="0.87"><ellipse rx="24.8" ry="15.7" fill="url(#lg2)"/><path d="M-20.3 0 Q0 -2.2 20.3 0" fill="none" stroke="#75996a" stroke-opacity=".38" stroke-width="1.41" stroke-linecap="round"/></g><path d="M150.3 277.9 L152.9 280.2" stroke="#8a9c76" stroke-width="1.32" opacity=".7" stroke-linecap="round"/><g transform="translate(171.2 244.7) rotate(-99.1)" opacity="0.86"><ellipse rx="23.3" ry="14.8" fill="url(#lg3)"/><path d="M-19.1 0 Q0 -2.1 19.1 0" fill="none" stroke="#5f8358" stroke-opacity=".38" stroke-width="1.33" stroke-linecap="round"/></g><path d="M174.4 264.5 L173.9 261.3" stroke="#8a9c76" stroke-width="1.32" opacity=".7" stroke-linecap="round"/><g transform="translate(215.3 261.7) rotate(32.0)" opacity="0.95"><ellipse rx="22.9" ry="14.5" fill="url(#lg1)"/><path d="M-18.8 0 Q0 -2.0 18.8 0" fill="none" stroke="#8bad78" stroke-opacity=".38" stroke-width="1.30" stroke-linecap="round"/></g><path d="M198.6 251.3 L201.4 253.0" stroke="#8a9c76" stroke-width="1.32" opacity=".7" stroke-linecap="round"/><g transform="translate(224.8 223.1) rotate(-83.2)" opacity="0.83"><ellipse rx="17.3" ry="10.9" fill="url(#lg1)"/><path d="M-14.2 0 Q0 -1.5 14.2 0" fill="none" stroke="#8bad78" stroke-opacity=".38" stroke-width="0.98" stroke-linecap="round"/></g><path d="M223.0 237.8 L223.3 235.4" stroke="#8a9c76" stroke-width="1.32" opacity=".7" stroke-linecap="round"/><g transform="translate(261.1 234.5) rotate(38.0)" opacity="0.86"><ellipse rx="20.0" ry="12.7" fill="url(#lg2)"/><path d="M-16.4 0 Q0 -1.8 16.4 0" fill="none" stroke="#75996a" stroke-opacity=".38" stroke-width="1.14" stroke-linecap="round"/></g><path d="M247.5 223.9 L249.7 225.6" stroke="#8a9c76" stroke-width="1.32" opacity=".7" stroke-linecap="round"/><g transform="translate(270.7 192.1) rotate(-95.1)" opacity="0.89"><ellipse rx="19.9" ry="12.6" fill="url(#lg4)"/><path d="M-16.3 0 Q0 -1.8 16.3 0" fill="none" stroke="#7d9c76" stroke-opacity=".38" stroke-width="1.14" stroke-linecap="round"/></g><path d="M272.2 209.2 L272.0 206.4" stroke="#8a9c76" stroke-width="1.32" opacity=".7" stroke-linecap="round"/><g transform="translate(309.1 202.6) rotate(37.7)" opacity="0.94"><ellipse rx="17.5" ry="11.1" fill="url(#lg0)"/><path d="M-14.3 0 Q0 -1.6 14.3 0" fill="none" stroke="#9db98c" stroke-opacity=".38" stroke-width="1.00" stroke-linecap="round"/></g><path d="M297.2 193.4 L299.1 194.9" stroke="#8a9c76" stroke-width="1.32" opacity=".7" stroke-linecap="round"/><g transform="translate(319.3 160.6) rotate(-100.9)" opacity="0.91"><ellipse rx="18.7" ry="11.8" fill="url(#lg1)"/><path d="M-15.3 0 Q0 -1.7 15.3 0" fill="none" stroke="#8bad78" stroke-opacity=".38" stroke-width="1.06" stroke-linecap="round"/></g><path d="M322.4 176.3 L321.9 173.8" stroke="#8a9c76" stroke-width="1.32" opacity=".7" stroke-linecap="round"/><g transform="translate(359.0 162.9) rotate(25.5)" opacity="0.89"><ellipse rx="14.3" ry="9.0" fill="url(#lg4)"/><path d="M-11.7 0 Q0 -1.3 11.7 0" fill="none" stroke="#7d9c76" stroke-opacity=".38" stroke-width="0.81" stroke-linecap="round"/></g><path d="M347.9 157.6 L349.7 158.4" stroke="#8a9c76" stroke-width="1.32" opacity=".7" stroke-linecap="round"/><g transform="translate(372.5 123.9) rotate(-95.5)" opacity="0.83"><ellipse rx="15.2" ry="9.6" fill="url(#lg4)"/><path d="M-12.4 0 Q0 -1.3 12.4 0" fill="none" stroke="#7d9c76" stroke-opacity=".38" stroke-width="0.86" stroke-linecap="round"/></g><path d="M373.8 136.9 L373.6 134.8" stroke="#8a9c76" stroke-width="1.32" opacity=".7" stroke-linecap="round"/><g transform="translate(409.4 117.3) rotate(19.2)" opacity="0.80"><ellipse rx="11.6" ry="7.4" fill="url(#lg3)"/><path d="M-9.5 0 Q0 -1.0 9.5 0" fill="none" stroke="#5f8358" stroke-opacity=".38" stroke-width="0.70" stroke-linecap="round"/></g><path d="M400.0 114.0 L401.5 114.5" stroke="#8a9c76" stroke-width="1.32" opacity=".7" stroke-linecap="round"/><path d="M-20.0 400.0 C60.0 228.0 60.0 106.4 150.0 -10.0" fill="none" stroke="#8a9c76" stroke-width="2.0" stroke-linecap="round" opacity=".85"/><g transform="translate(13.3 368.0) rotate(-4.5)" opacity="0.86"><ellipse rx="25.8" ry="7.7" fill="url(#lg2)"/><path d="M-21.1 0 Q0 -1.1 21.1 0" fill="none" stroke="#75996a" stroke-opacity=".38" stroke-width="0.70" stroke-linecap="round"/></g><path d="M-6.4 369.6 L-5.2 369.5" stroke="#8a9c76" stroke-width="1.10" opacity=".7" stroke-linecap="round"/><g transform="translate(-3.3 317.0) rotate(-130.6)" opacity="0.90"><ellipse rx="24.7" ry="7.3" fill="url(#lg4)"/><path d="M-20.2 0 Q0 -1.0 20.2 0" fill="none" stroke="#7d9c76" stroke-opacity=".38" stroke-width="0.70" stroke-linecap="round"/></g><path d="M9.1 331.4 L8.3 330.5" stroke="#8a9c76" stroke-width="1.10" opacity=".7" stroke-linecap="round"/><g transform="translate(38.2 296.0) rotate(4.1)" opacity="0.88"><ellipse rx="20.6" ry="6.1" fill="url(#lg2)"/><path d="M-16.9 0 Q0 -0.9 16.9 0" fill="none" stroke="#75996a" stroke-opacity=".38" stroke-width="0.70" stroke-linecap="round"/></g><path d="M22.5 294.8 L23.4 294.9" stroke="#8a9c76" stroke-width="1.10" opacity=".7" stroke-linecap="round"/><g transform="translate(19.6 246.1) rotate(-137.1)" opacity="0.97"><ellipse rx="26.2" ry="7.8" fill="url(#lg1)"/><path d="M-21.4 0 Q0 -1.1 21.4 0" fill="none" stroke="#8bad78" stroke-opacity=".38" stroke-width="0.70" stroke-linecap="round"/></g><path d="M34.3 259.8 L33.4 258.9" stroke="#8a9c76" stroke-width="1.10" opacity=".7" stroke-linecap="round"/><g transform="translate(60.4 222.8) rotate(-12.0)" opacity="0.88"><ellipse rx="20.5" ry="6.1" fill="url(#lg4)"/><path d="M-16.8 0 Q0 -0.9 16.8 0" fill="none" stroke="#7d9c76" stroke-opacity=".38" stroke-width="0.70" stroke-linecap="round"/></g><path d="M45.0 226.1 L46.0 225.9" stroke="#8a9c76" stroke-width="1.10" opacity=".7" stroke-linecap="round"/><g transform="translate(38.9 185.4) rotate(-153.0)" opacity="0.90"><ellipse rx="23.6" ry="7.0" fill="url(#lg2)"/><path d="M-19.4 0 Q0 -1.0 19.4 0" fill="none" stroke="#75996a" stroke-opacity=".38" stroke-width="0.70" stroke-linecap="round"/></g><path d="M55.1 193.6 L54.1 193.1" stroke="#8a9c76" stroke-width="1.10" opacity=".7" stroke-linecap="round"/><g transform="translate(78.1 159.5) rotate(-11.9)" opacity="0.84"><ellipse rx="17.3" ry="5.1" fill="url(#lg2)"/><path d="M-14.2 0 Q0 -0.7 14.2 0" fill="none" stroke="#75996a" stroke-opacity=".38" stroke-width="0.70" stroke-linecap="round"/></g><path d="M65.1 162.3 L65.9 162.1" stroke="#8a9c76" stroke-width="1.10" opacity=".7" stroke-linecap="round"/><g transform="translate(61.6 123.6) rotate(-149.0)" opacity="0.85"><ellipse rx="21.0" ry="6.2" fill="url(#lg3)"/><path d="M-17.2 0 Q0 -0.9 17.2 0" fill="none" stroke="#5f8358" stroke-opacity=".38" stroke-width="0.70" stroke-linecap="round"/></g><path d="M75.5 131.9 L74.6 131.4" stroke="#8a9c76" stroke-width="1.10" opacity=".7" stroke-linecap="round"/><g transform="translate(101.4 102.2) rotate(-0.4)" opacity="0.91"><ellipse rx="19.1" ry="5.7" fill="url(#lg4)"/><path d="M-15.7 0 Q0 -0.8 15.7 0" fill="none" stroke="#7d9c76" stroke-opacity=".38" stroke-width="0.70" stroke-linecap="round"/></g><path d="M86.7 102.3 L87.6 102.3" stroke="#8a9c76" stroke-width="1.10" opacity=".7" stroke-linecap="round"/><g transform="translate(90.5 67.4) rotate(-145.2)" opacity="0.83"><ellipse rx="13.8" ry="4.1" fill="url(#lg4)"/><path d="M-11.3 0 Q0 -0.6 11.3 0" fill="none" stroke="#7d9c76" stroke-opacity=".38" stroke-width="0.70" stroke-linecap="round"/></g><path d="M99.3 73.5 L98.7 73.1" stroke="#8a9c76" stroke-width="1.10" opacity=".7" stroke-linecap="round"/><g transform="translate(125.1 48.1) rotate(13.7)" opacity="0.86"><ellipse rx="15.4" ry="4.6" fill="url(#lg2)"/><path d="M-12.6 0 Q0 -0.6 12.6 0" fill="none" stroke="#75996a" stroke-opacity=".38" stroke-width="0.70" stroke-linecap="round"/></g><path d="M113.7 45.3 L114.4 45.4" stroke="#8a9c76" stroke-width="1.10" opacity=".7" stroke-linecap="round"/><g transform="translate(125.3 9.4) rotate(-122.4)" opacity="0.78"><ellipse rx="12.5" ry="3.7" fill="url(#lg2)"/><path d="M-10.2 0 Q0 -0.5 10.2 0" fill="none" stroke="#75996a" stroke-opacity=".38" stroke-width="0.70" stroke-linecap="round"/></g><path d="M130.4 17.5 L130.1 17.0" stroke="#8a9c76" stroke-width="1.10" opacity=".7" stroke-linecap="round"/><g transform="translate(158.7 -6.9) rotate(19.5)" opacity="0.85"><ellipse rx="12.0" ry="3.6" fill="url(#lg0)"/><path d="M-9.8 0 Q0 -0.5 9.8 0" fill="none" stroke="#9db98c" stroke-opacity=".38" stroke-width="0.70" stroke-linecap="round"/></g><path d="M150.0 -10.0 L150.5 -9.8" stroke="#8a9c76" stroke-width="1.10" opacity=".7" stroke-linecap="round"/><path d="M-10.0 390.0 C150.0 349.6 300.0 349.6 415.0 273.6" fill="none" stroke="#94a583" stroke-width="1.8" stroke-linecap="round" opacity=".85"/><g transform="translate(33.5 397.2) rotate(43.6)" opacity="0.87"><ellipse rx="23.7" ry="14.8" fill="url(#lg2)"/><path d="M-19.5 0 Q0 -2.1 19.5 0" fill="none" stroke="#75996a" stroke-opacity=".38" stroke-width="1.33" stroke-linecap="round"/></g><path d="M18.7 383.1 L21.1 385.4" stroke="#94a583" stroke-width="0.99" opacity=".7" stroke-linecap="round"/><g transform="translate(64.5 355.6) rotate(-74.0)" opacity="0.92"><ellipse rx="22.9" ry="14.3" fill="url(#lg2)"/><path d="M-18.8 0 Q0 -2.0 18.8 0" fill="none" stroke="#75996a" stroke-opacity=".38" stroke-width="1.29" stroke-linecap="round"/></g><path d="M59.1 374.6 L60.0 371.5" stroke="#94a583" stroke-width="0.99" opacity=".7" stroke-linecap="round"/><g transform="translate(109.3 377.8) rotate(46.0)" opacity="0.96"><ellipse rx="17.3" ry="10.8" fill="url(#lg0)"/><path d="M-14.2 0 Q0 -1.5 14.2 0" fill="none" stroke="#9db98c" stroke-opacity=".38" stroke-width="0.97" stroke-linecap="round"/></g><path d="M98.9 367.0 L100.6 368.8" stroke="#94a583" stroke-width="0.99" opacity=".7" stroke-linecap="round"/><g transform="translate(142.0 345.3) rotate(-75.0)" opacity="0.89"><ellipse rx="17.8" ry="11.2" fill="url(#lg4)"/><path d="M-14.6 0 Q0 -1.6 14.6 0" fill="none" stroke="#7d9c76" stroke-opacity=".38" stroke-width="1.00" stroke-linecap="round"/></g><path d="M138.1 360.1 L138.7 357.7" stroke="#94a583" stroke-width="0.99" opacity=".7" stroke-linecap="round"/><g transform="translate(185.7 363.9) rotate(48.8)" opacity="0.94"><ellipse rx="16.4" ry="10.2" fill="url(#lg2)"/><path d="M-13.4 0 Q0 -1.4 13.4 0" fill="none" stroke="#75996a" stroke-opacity=".38" stroke-width="0.92" stroke-linecap="round"/></g><path d="M176.4 353.3 L177.9 355.0" stroke="#94a583" stroke-width="0.99" opacity=".7" stroke-linecap="round"/><g transform="translate(215.4 332.7) rotate(-83.6)" opacity="0.93"><ellipse rx="15.9" ry="9.9" fill="url(#lg0)"/><path d="M-13.0 0 Q0 -1.4 13.0 0" fill="none" stroke="#9db98c" stroke-opacity=".38" stroke-width="0.89" stroke-linecap="round"/></g><path d="M213.9 346.3 L214.1 344.0" stroke="#94a583" stroke-width="0.99" opacity=".7" stroke-linecap="round"/><g transform="translate(257.2 348.0) rotate(54.6)" opacity="0.84"><ellipse rx="13.6" ry="8.5" fill="url(#lg1)"/><path d="M-11.2 0 Q0 -1.2 11.2 0" fill="none" stroke="#8bad78" stroke-opacity=".38" stroke-width="0.77" stroke-linecap="round"/></g><path d="M250.4 338.5 L251.5 340.0" stroke="#94a583" stroke-width="0.99" opacity=".7" stroke-linecap="round"/><g transform="translate(286.2 317.8) rotate(-88.2)" opacity="0.84"><ellipse rx="13.6" ry="8.5" fill="url(#lg1)"/><path d="M-11.2 0 Q0 -1.2 11.2 0" fill="none" stroke="#8bad78" stroke-opacity=".38" stroke-width="0.77" stroke-linecap="round"/></g><path d="M285.8 329.5 L285.9 327.6" stroke="#94a583" stroke-width="0.99" opacity=".7" stroke-linecap="round"/><g transform="translate(328.1 328.8) rotate(50.5)" opacity="0.80"><ellipse rx="14.7" ry="9.2" fill="url(#lg0)"/><path d="M-12.1 0 Q0 -1.3 12.1 0" fill="none" stroke="#9db98c" stroke-opacity=".38" stroke-width="0.83" stroke-linecap="round"/></g><path d="M320.1 319.0 L321.4 320.6" stroke="#94a583" stroke-width="0.99" opacity=".7" stroke-linecap="round"/><g transform="translate(353.9 296.2) rotate(-85.3)" opacity="0.86"><ellipse rx="12.1" ry="7.5" fill="url(#lg1)"/><path d="M-9.9 0 Q0 -1.1 9.9 0" fill="none" stroke="#8bad78" stroke-opacity=".38" stroke-width="0.70" stroke-linecap="round"/></g><path d="M353.1 306.5 L353.2 304.8" stroke="#94a583" stroke-width="0.99" opacity=".7" stroke-linecap="round"/><g transform="translate(394.4 297.2) rotate(30.9)" opacity="0.92"><ellipse rx="13.0" ry="8.2" fill="url(#lg2)"/><path d="M-10.7 0 Q0 -1.1 10.7 0" fill="none" stroke="#75996a" stroke-opacity=".38" stroke-width="0.73" stroke-linecap="round"/></g><path d="M384.8 291.5 L386.3 292.4" stroke="#94a583" stroke-width="0.99" opacity=".7" stroke-linecap="round"/><g transform="translate(413.4 265.5) rotate(-101.0)" opacity="0.82"><ellipse rx="9.6" ry="6.0" fill="url(#lg2)"/><path d="M-7.9 0 Q0 -0.8 7.9 0" fill="none" stroke="#75996a" stroke-opacity=".38" stroke-width="0.70" stroke-linecap="round"/></g><path d="M415.0 273.6 L414.7 272.3" stroke="#94a583" stroke-width="0.99" opacity=".7" stroke-linecap="round"/><circle cx="194.3" cy="202.9" r="3.6" fill="#c3ac8c" stroke="#a28767" stroke-opacity=".5" stroke-width=".8" opacity=".9"/><circle cx="177.7" cy="184.8" r="4.8" fill="#c3ac8c" stroke="#a28767" stroke-opacity=".5" stroke-width=".8" opacity=".9"/><circle cx="158.5" cy="215.8" r="3.1" fill="#c3ac8c" stroke="#a28767" stroke-opacity=".5" stroke-width=".8" opacity=".9"/><circle cx="158.8" cy="187.2" r="3.8" fill="#c3ac8c" stroke="#a28767" stroke-opacity=".5" stroke-width=".8" opacity=".9"/><circle cx="148.0" cy="195.1" r="3.9" fill="#c3ac8c" stroke="#a28767" stroke-opacity=".5" stroke-width=".8" opacity=".9"/><circle cx="165.0" cy="192.0" r="4.1" fill="#c3ac8c" stroke="#a28767" stroke-opacity=".5" stroke-width=".8" opacity=".9"/><circle cx="180.5" cy="200.0" r="3.4" fill="#c3ac8c" stroke="#a28767" stroke-opacity=".5" stroke-width=".8" opacity=".9"/></g></svg>