<svg xmlns="http://www.w3.org/2000/svg" viewBox="0 0 200 110" width="200" height="110" fill="none"><defs><radialGradient id="lg0" cx="38%" cy="34%" r="78%"><stop offset="0%" stop-color="#C4D6D2"/><stop offset="62%" stop-color="#93B3AC"/><stop offset="100%" stop-color="#93B3AC" stop-opacity=".88"/></radialGradient><radialGradient id="lg1" cx="38%" cy="34%" r="78%"><stop offset="0%" stop-color="#B0C8C4"/><stop offset="62%" stop-color="#7FA39C"/><stop offset="100%" stop-color="#7FA39C" stop-opacity=".88"/></radialGradient><radialGradient id="lg2" cx="38%" cy="34%" r="78%"><stop offset="0%" stop-color="#A7BFC6"/><stop offset="62%" stop-color="#758FA0"/><stop offset="100%" stop-color="#758FA0" stop-opacity=".88"/></radialGradient><radialGradient id="lg3" cx="38%" cy="34%" r="78%"><stop offset="0%" stop-color="#9DB6B0"/><stop offset="62%" stop-color="#6C8D86"/><stop offset="100%" stop-color="#6C8D86" stop-opacity=".88"/></radialGradient><radialGradient id="lg4" cx="38%" cy="34%" r="78%"><stop offset="0%" stop-color="#C3C6E2"/><stop offset="62%" stop-color="#8E92C2"/><stop offset="100%" stop-color="#8E92C2" stop-opacity=".88"/></radialGradient><radialGradient id="lg5" cx="38%" cy="34%" r="78%"><stop offset="0%" stop-color="#B6ADD6"/><stop offset="62%" stop-color="#8074B2"/><stop offset="100%" stop-color="#8074B2" stop-opacity=".88"/></radialGradient><radialGradient id="pt0" cx="50%" cy="88%" r="96%"><stop offset="0%" stop-color="#F3EEF8"/><stop offset="42%" stop-color="#D4C9EC"/><stop offset="100%" stop-color="#8E7FC4" stop-opacity=".92"/></radialGradient><radialGradient id="ct0" cx="42%" cy="38%" r="70%"><stop offset="0%" stop-color="#F3EEF8"/><stop offset="100%" stop-color="#8E7FC4" stop-opacity=".75"/></radialGradient><radialGradient id="hl0" cx="50%" cy="50%" r="50%"><stop offset="0%" stop-color="#D4C9EC" stop-opacity=".38"/><stop offset="58%" stop-color="#D4C9EC" stop-opacity=".16"/><stop offset="100%" stop-color="#D4C9EC" stop-opacity="0"/></radialGradient><radialGradient id="pt1" cx="50%" cy="88%" r="96%"><stop offset="0%" stop-color="#F1EFFA"/><stop offset="42%" stop-color="#C2C6EC"/><stop offset="100%" stop-color="#7C86C6" stop-opacity=".92"/></radialGradient><radialGradient id="ct1" cx="42%" cy="38%" r="70%"><stop offset="0%" stop-color="#F1EFFA"/><stop offset="100%" stop-color="#7C86C6" stop-opacity=".75"/></radialGradient><radialGradient id="hl1" cx="50%" cy="50%" r="50%"><stop offset="0%" stop-color="#C2C6EC" stop-opacity=".38"/><stop offset="58%" stop-color="#C2C6EC" stop-opacity=".16"/><stop offset="100%" stop-color="#C2C6EC" stop-opacity="0"/></radialGradient><radialGradient id="pt2" cx="50%" cy="88%" r="96%"><stop offset="0%" stop-color="#F6EEF4"/><stop offset="42%" stop-color="#E7C4DC"/><stop offset="100%" stop-color="#B87BA8" stop-opacity=".92"/></radialGradient><radialGradient id="ct2" cx="42%" cy="38%" r="70%"><stop offset="0%" stop-color="#F6EEF4"/><stop offset="100%" stop-color="#B87BA8" stop-opacity=".75"/></radialGradient><radialGradient id="hl2" cx="50%" cy="50%" r="50%"><stop offset="0%" stop-color="#E7C4DC" stop-opacity=".38"/><stop offset="58%" stop-color="#E7C4DC" stop-opacity=".16"/><stop offset="100%" stop-color="#E7C4DC" stop-opacity="0"/></radialGradient><radialGradient id="pt3" cx="50%" cy="88%" r="96%"><stop offset="0%" stop-color="#FBF0F2"/><stop offset="42%" stop-color="#EFCBD4"/><stop offset="100%" stop-color="#C88C9E" stop-opacity=".92"/></radialGradient><radialGradient id="ct3" cx="42%" cy="38%" r="70%"><stop offset="0%" stop-color="#FBF0F2"/><stop offset="100%" stop-color="#C88C9E" stop-opacity=".75"/></radialGradient><radialGradient id="hl3" cx="50%" cy="50%" r="50%"><stop offset="0%" stop-color="#EFCBD4" stop-opacity=".38"/><stop offset="58%" stop-color="#EFCBD4" stop-opacity=".16"/><stop offset="100%" stop-color="#EFCBD4" stop-opacity="0"/></radialGradient><radialGradient id="pt4" cx="50%" cy="88%" r="96%"><stop offset="0%" stop-color="#F2EDF9"/><stop offset="42%" stop-color="#C8B6E4"/><stop offset="100%" stop-color="#7A6BB0" stop-opacity=".92"/></radialGradient><radialGradient id="ct4" cx="42%" cy="38%" r="70%"><stop offset="0%" stop-color="#F2EDF9"/><stop offset="100%" stop-color="#7A6BB0" stop-opacity=".75"/></radialGradient><radialGradient id="hl4" cx="50%" cy="50%" r="50%"><stop offset="0%" stop-color="#C8B6E4" stop-opacity=".38"/><stop offset="58%" stop-color="#C8B6E4" stop-opacity=".16"/><stop offset="100%" stop-color="#C8B6E4" stop-opacity="0"/></radialGradient><filter id="wc" x="-40%" y="-40%" width="180%" height="180%"><feGaussianBlur stdDeviation="1.1"/></filter></defs><path d="M10.0 98.0 C70.0 19.8 124.0 99.0 188.0 30.8" fill="none" stroke="#9AA3C0" stroke-width="1.5" stroke-linecap="round" opacity=".85"/><g transform="translate(35.5 89.1) rotate(13.4)" opacity="0.94"><ellipse rx="17.6" ry="11.4" fill="url(#lg0)"/><path d="M-14.4 0 Q0 -1.6 14.4 0" fill="none" stroke="#93B3AC" stroke-opacity=".32" stroke-width="1.03" stroke-linecap="round"/></g><path d="M20.7 85.6 L23.1 86.1" stroke="#9AA3C0" stroke-width="0.83" opacity=".7" stroke-linecap="round"/><g transform="translate(37.7 54.7) rotate(-88.7)" opacity="0.80"><ellipse rx="20.0" ry="13.0" fill="url(#lg4)"/><path d="M-16.4 0 Q0 -1.8 16.4 0" fill="none" stroke="#8E92C2" stroke-opacity=".32" stroke-width="1.17" stroke-linecap="round"/></g><path d="M37.4 72.0 L37.4 69.2" stroke="#9AA3C0" stroke-width="0.83" opacity=".7" stroke-linecap="round"/><g transform="translate(65.6 73.5) rotate(38.4)" opacity="0.78"><ellipse rx="17.5" ry="11.4" fill="url(#lg1)"/><path d="M-14.3 0 Q0 -1.6 14.3 0" fill="none" stroke="#7FA39C" stroke-opacity=".32" stroke-width="1.02" stroke-linecap="round"/></g><path d="M53.8 64.2 L55.7 65.7" stroke="#9AA3C0" stroke-width="0.83" opacity=".7" stroke-linecap="round"/><g transform="translate(76.0 49.0) rotate(-63.3)" opacity="0.81"><ellipse rx="15.4" ry="10.0" fill="url(#lg3)"/><path d="M-12.6 0 Q0 -1.4 12.6 0" fill="none" stroke="#6C8D86" stroke-opacity=".32" stroke-width="0.90" stroke-linecap="round"/></g><path d="M70.1 60.8 L71.1 58.9" stroke="#9AA3C0" stroke-width="0.83" opacity=".7" stroke-linecap="round"/><g transform="translate(95.1 72.7) rotate(55.2)" opacity="0.81"><ellipse rx="17.8" ry="11.5" fill="url(#lg1)"/><path d="M-14.6 0 Q0 -1.6 14.6 0" fill="none" stroke="#7FA39C" stroke-opacity=".32" stroke-width="1.04" stroke-linecap="round"/></g><path d="M86.4 60.2 L87.8 62.3" stroke="#9AA3C0" stroke-width="0.83" opacity=".7" stroke-linecap="round"/><g transform="translate(113.0 49.5) rotate(-48.1)" opacity="0.95"><ellipse rx="17.8" ry="11.6" fill="url(#lg1)"/><path d="M-14.6 0 Q0 -1.6 14.6 0" fill="none" stroke="#7FA39C" stroke-opacity=".32" stroke-width="1.04" stroke-linecap="round"/></g><path d="M102.7 60.9 L104.4 59.1" stroke="#9AA3C0" stroke-width="0.83" opacity=".7" stroke-linecap="round"/><g transform="translate(122.9 72.6) rotate(71.7)" opacity="0.81"><ellipse rx="13.7" ry="8.9" fill="url(#lg1)"/><path d="M-11.2 0 Q0 -1.2 11.2 0" fill="none" stroke="#7FA39C" stroke-opacity=".32" stroke-width="0.80" stroke-linecap="round"/></g><path d="M119.2 61.4 L119.8 63.2" stroke="#9AA3C0" stroke-width="0.83" opacity=".7" stroke-linecap="round"/><g transform="translate(141.9 47.7) rotate(-64.2)" opacity="0.84"><ellipse rx="16.1" ry="10.5" fill="url(#lg3)"/><path d="M-13.2 0 Q0 -1.5 13.2 0" fill="none" stroke="#6C8D86" stroke-opacity=".32" stroke-width="0.94" stroke-linecap="round"/></g><path d="M135.9 60.2 L136.9 58.1" stroke="#9AA3C0" stroke-width="0.83" opacity=".7" stroke-linecap="round"/><g transform="translate(161.9 61.7) rotate(33.5)" opacity="0.84"><ellipse rx="12.6" ry="8.2" fill="url(#lg4)"/><path d="M-10.4 0 Q0 -1.1 10.4 0" fill="none" stroke="#8E92C2" stroke-opacity=".32" stroke-width="0.74" stroke-linecap="round"/></g><path d="M152.9 55.7 L154.3 56.6" stroke="#9AA3C0" stroke-width="0.83" opacity=".7" stroke-linecap="round"/><g transform="translate(168.4 34.7) rotate(-98.6)" opacity="0.79"><ellipse rx="13.8" ry="9.0" fill="url(#lg2)"/><path d="M-11.3 0 Q0 -1.3 11.3 0" fill="none" stroke="#758FA0" stroke-opacity=".32" stroke-width="0.81" stroke-linecap="round"/></g><path d="M170.2 46.4 L169.9 44.5" stroke="#9AA3C0" stroke-width="0.83" opacity=".7" stroke-linecap="round"/><g transform="translate(197.5 32.6) rotate(10.9)" opacity="0.87"><ellipse rx="11.2" ry="7.3" fill="url(#lg1)"/><path d="M-9.2 0 Q0 -1.0 9.2 0" fill="none" stroke="#7FA39C" stroke-opacity=".32" stroke-width="0.70" stroke-linecap="round"/></g><path d="M188.0 30.8 L189.5 31.1" stroke="#9AA3C0" stroke-width="0.83" opacity=".7" stroke-linecap="round"/><g transform="translate(68.0 48.4) rotate(20.5) scale(1 0.99)"><circle r="34.1" fill="url(#hl0)"/><g filter="url(#wc)"><ellipse cx="0" cy="-12.6" rx="10.7" ry="13.6" fill="url(#pt0)" opacity=".55" transform="rotate(-6.7)"/><ellipse cx="0" cy="-11.5" rx="9.7" ry="12.4" fill="url(#pt0)" opacity=".55" transform="rotate(76.8)"/><ellipse cx="0" cy="-12.0" rx="10.2" ry="13.0" fill="url(#pt0)" opacity=".55" transform="rotate(148.0)"/><ellipse cx="0" cy="-11.5" rx="9.7" ry="12.3" fill="url(#pt0)" opacity=".55" transform="rotate(217.1)"/><ellipse cx="0" cy="-11.7" rx="9.9" ry="12.6" fill="url(#pt0)" opacity=".55" transform="rotate(281.7)"/><ellipse cx="0" cy="-9.8" rx="7.8" ry="10.5" fill="url(#pt0)" opacity=".9" transform="rotate(41.5)"/><ellipse cx="0" cy="-10.9" rx="8.7" ry="11.8" fill="url(#pt0)" opacity=".9" transform="rotate(111.1)"/><ellipse cx="0" cy="-10.0" rx="8.0" ry="10.8" fill="url(#pt0)" opacity=".9" transform="rotate(185.3)"/><ellipse cx="0" cy="-10.3" rx="8.2" ry="11.1" fill="url(#pt0)" opacity=".9" transform="rotate(250.3)"/><ellipse cx="0" cy="-9.6" rx="7.7" ry="10.4" fill="url(#pt0)" opacity=".9" transform="rotate(327.3)"/></g><circle r="4.4" fill="url(#ct0)"/><circle cx="0.9" cy="-1.1" r="1.7" fill="#8E7FC4" opacity=".55"/><circle cx="2.2" cy="1.4" r="1.3" fill="#8E7FC4" opacity=".55"/><circle cx="2.3" cy="-1.3" r="1.6" fill="#8E7FC4" opacity=".55"/><circle cx="-2.5" cy="-0.7" r="1.1" fill="#8E7FC4" opacity=".55"/><circle cx="0.7" cy="1.5" r="0.9" fill="#8E7FC4" opacity=".55"/><circle cx="-2.0" cy="-4.9" r="0.9" fill="#8E7FC4" opacity=".55"/><circle cx="5.0" cy="1.6" r="1.3" fill="#8E7FC4" opacity=".55"/></g><g transform="translate(124.0 68.2) rotate(11.5) scale(1 0.94)"><circle r="23.2" fill="url(#hl2)"/><g filter="url(#wc)"><ellipse cx="0" cy="-8.1" rx="6.8" ry="8.7" fill="url(#pt2)" opacity=".55" transform="rotate(-2.2)"/><ellipse cx="0" cy="-8.0" rx="6.7" ry="8.6" fill="url(#pt2)" opacity=".55" transform="rotate(53.5)"/><ellipse cx="0" cy="-8.5" rx="7.2" ry="9.2" fill="url(#pt2)" opacity=".55" transform="rotate(109.6)"/><ellipse cx="0" cy="-8.2" rx="6.9" ry="8.8" fill="url(#pt2)" opacity=".55" transform="rotate(158.5)"/><ellipse cx="0" cy="-8.9" rx="7.5" ry="9.6" fill="url(#pt2)" opacity=".55" transform="rotate(201.6)"/><ellipse cx="0" cy="-7.9" rx="6.7" ry="8.6" fill="url(#pt2)" opacity=".55" transform="rotate(258.0)"/><ellipse cx="0" cy="-8.3" rx="7.0" ry="8.9" fill="url(#pt2)" opacity=".55" transform="rotate(314.1)"/><ellipse cx="0" cy="-6.8" rx="5.5" ry="7.4" fill="url(#pt2)" opacity=".9" transform="rotate(21.7)"/><ellipse cx="0" cy="-6.9" rx="5.5" ry="7.4" fill="url(#pt2)" opacity=".9" transform="rotate(71.8)"/><ellipse cx="0" cy="-7.4" rx="5.9" ry="8.0" fill="url(#pt2)" opacity=".9" transform="rotate(124.3)"/><ellipse cx="0" cy="-6.6" rx="5.3" ry="7.2" fill="url(#pt2)" opacity=".9" transform="rotate(181.4)"/><ellipse cx="0" cy="-7.5" rx="6.0" ry="8.1" fill="url(#pt2)" opacity=".9" transform="rotate(231.7)"/><ellipse cx="0" cy="-6.8" rx="5.4" ry="7.3" fill="url(#pt2)" opacity=".9" transform="rotate(285.1)"/><ellipse cx="0" cy="-6.9" rx="5.6" ry="7.5" fill="url(#pt2)" opacity=".9" transform="rotate(331.6)"/></g><circle r="3.0" fill="url(#ct2)"/><circle cx="2.4" cy="2.0" r="1.3" fill="#B87BA8" opacity=".55"/><circle cx="1.5" cy="3.1" r="1.6" fill="#B87BA8" opacity=".55"/><circle cx="0.9" cy="2.0" r="1.3" fill="#B87BA8" opacity=".55"/><circle cx="-2.2" cy="-0.7" r="0.9" fill="#B87BA8" opacity=".55"/><circle cx="0.5" cy="-1.8" r="1.3" fill="#B87BA8" opacity=".55"/><circle cx="1.7" cy="0.4" r="1.3" fill="#B87BA8" opacity=".55"/></g></svg>